<?xml version="1.0" encoding="UTF-8" standalone="no"?>
<svg
   viewBox="0 0 200 99.999997"
   version="1.1"
   id="svg39017"
   sodipodi:docname="epfl_logo.svg"
   width="200"
   height="100"
   inkscape:version="1.4 (1:1.4+202410151212+e7c3feb100)"
   xml:space="preserve"
   xmlns:inkscape="http://www.inkscape.org/namespaces/inkscape"
   xmlns:sodipodi="http://sodipodi.sourceforge.net/DTD/sodipodi-0.dtd"
   xmlns="http://www.w3.org/2000/svg"
   xmlns:svg="http://www.w3.org/2000/svg"><sodipodi:namedview
   id="namedview1"
   pagecolor="#ffffff"
   bordercolor="#000000"
   borderopacity="0.25"
   inkscape:showpageshadow="2"
   inkscape:pageopacity="0.0"
   inkscape:pagecheckerboard="0"
   inkscape:deskcolor="#d1d1d1"
   inkscape:zoom="4.81"
   inkscape:cx="100"
   inkscape:cy="50"
   inkscape:window-width="1920"
   inkscape:window-height="1011"
   inkscape:window-x="0"
   inkscape:window-y="0"
   inkscape:window-maximized="1"
   inkscape:current-layer="svg39017" />
  <defs
   id="defs39021">
    <clipPath
   id="clipPath54030">
      <path
   d="m 0,0 439.37,0 0,623.622 L 0,623.622 0,0 z"
   id="path54032" />
    </clipPath>
    <style
   id="style2">.cls-1{fill:red;}</style>
  </defs>
  <title
   id="title38993">ETH Zürich</title>
  <metadata
   id="metadata39503" />
  <rect
   style="fill:#ffffff;stroke-width:2"
   id="rect42890"
   width="200"
   height="100"
   x="7.6293945e-06"
   y="0"
   ry="3"
   rx="3" />
  
  <g
   id="g41347"
   transform="matrix(0.93211975,0,0,0.93211975,15,25.302491)">
    <path
   id="polygon8"
   d="M 0,21.6 H 11.43 V 9.8 H 38.34 V 0 H 0 Z"
   style="fill:#ff0000" />
    <path
   id="polygon10"
   d="M 0,53 H 38.34 V 43.2 H 11.43 V 31.4 H 0 Z"
   style="fill:#ff0000" />
    <path
   id="rect12"
   d="m 11.43,21.6 h 24.610001 v 9.800001 H 11.43 Z"
   style="fill:#ff0000" />
    <path
   style="fill:#ff0000"
   id="path14"
   d="M 86,4.87 A 16.12,16.12 0 0 0 80.32,1.34 23.76,23.76 0 0 0 71.82,0 H 48.14 V 53 H 59.57 V 31.4 h 12.25 a 23.76,23.76 0 0 0 8.46,-1.34 16.12,16.12 0 0 0 5.72,-3.53 13.43,13.43 0 0 0 3.19,-5 17.38,17.38 0 0 0 0,-11.62 A 13.52,13.52 0 0 0 86,4.87 Z m -8,13.86 a 5.7,5.7 0 0 1 -2.26,1.8 11.33,11.33 0 0 1 -3.27,0.85 32,32 0 0 1 -3.86,0.22 H 59.57 V 9.8 h 9.05 a 32,32 0 0 1 3.86,0.22 11,11 0 0 1 3.27,0.86 5.59,5.59 0 0 1 2.25,1.79 5,5 0 0 1 0.86,3 5,5 0 0 1 -0.86,3.06 z"
   class="cls-1" />
    <path
   id="polygon16"
   d="M 155.47,43.2 V 0 h -11.43 v 53 h 38.34 v -9.8 z"
   style="fill:#ff0000" />
    <path
   id="polygon18"
   d="m 97.42,21.6 h 11.43 V 9.8 h 26.91 V 0 H 97.42 Z"
   style="fill:#ff0000" />
    <path
   id="rect20"
   d="M 97.419998,31.4 H 108.85 V 53 H 97.419998 Z"
   style="fill:#ff0000" />
    <path
   id="rect22"
   d="m 108.85,21.6 h 24.61 v 9.800001 h -24.61 z"
   style="fill:#ff0000" />
  </g>
</svg>
