<?xml version="1.0" encoding="UTF-8" standalone="no"?>
<svg
   viewBox="0 0 200 99.999997"
   version="1.1"
   id="svg39017"
   sodipodi:docname="eth_logo.svg"
   width="200"
   height="100"
   inkscape:version="1.4 (1:1.4+202410151212+e7c3feb100)"
   xmlns:inkscape="http://www.inkscape.org/namespaces/inkscape"
   xmlns:sodipodi="http://sodipodi.sourceforge.net/DTD/sodipodi-0.dtd"
   xmlns="http://www.w3.org/2000/svg"
   xmlns:svg="http://www.w3.org/2000/svg">
  <sodipodi:namedview
     id="namedview1"
     pagecolor="#ffffff"
     bordercolor="#000000"
     borderopacity="0.25"
     inkscape:showpageshadow="2"
     inkscape:pageopacity="0.0"
     inkscape:pagecheckerboard="0"
     inkscape:deskcolor="#d1d1d1"
     inkscape:zoom="4.81"
     inkscape:cx="100"
     inkscape:cy="50"
     inkscape:window-width="1920"
     inkscape:window-height="1011"
     inkscape:window-x="0"
     inkscape:window-y="0"
     inkscape:window-maximized="1"
     inkscape:current-layer="svg39017" />
  <defs
     id="defs39021" />
  <title
     id="title38993">ETH Zürich</title>
  <rect
     style="fill:#ffffff;stroke-width:2"
     id="rect42890"
     width="200"
     height="100"
     x="-0.23609161"
     y="0.23609161"
     ry="3"
     rx="3" />
  <g
     id="ETH_zurich_logo"
     data-name="ETH zurich logo"
     transform="matrix(0.88233191,0,0,0.88233191,14.97353,25.767888)">
    <g
       id="ETH_Zurich_short"
       data-name="ETH Zurich short">
      <path
         d="m 118.45,34.56 c -1.11,5.5 -5.35,5.78 -6.2,5.78 -2.4,0 -3.83,-1.38 -3.83,-3.7 a 11.05,11.05 0 0 1 0.22,-2 l 2.62,-13.09 v 0 h -3.11 L 105.49,35 v 0.19 a 9.31,9.31 0 0 0 -0.22,1.93 5.64,5.64 0 0 0 5.89,6 8,8 0 0 0 6.18,-2.52 l -0.41,2.21 v 0.05 H 120 l 4.23,-21.26 v 0 H 121 l -2.59,13 z"
         id="path38995" />
      <path
         d="m 139.61,21.27 a 7.29,7.29 0 0 0 -5.86,2.7 l 0.48,-2.39 v 0 h -3.06 L 127,42.79 v 0.05 h 3.11 l 2.59,-13 c 0.66,-3.35 3.23,-5.77 6.11,-5.77 a 3.53,3.53 0 0 1 3,1.49 v 0 l 2.52,-2.25 v 0 a 5.78,5.78 0 0 0 -4.64,-2 z"
         id="path38997" />
      <polygon
         points="88.28,24.28 98.87,24.28 84.77,40.23 84.76,40.23 84.23,42.84 99.26,42.84 99.8,40.08 88.56,40.08 102.71,24.14 102.71,24.13 103.24,21.53 88.82,21.53 88.29,24.23 "
         id="polygon38999" />
      <polygon
         points="148.95,21.53 144.67,42.79 144.66,42.84 147.77,42.84 152,21.53 "
         id="polygon39001" />
      <path
         d="m 186.76,21.27 a 7.91,7.91 0 0 0 -6.08,2.4 L 183.09,11.8 H 180 l -6.23,31 h 3.1 l 2.59,-13 c 1.11,-5.49 5.4,-5.77 6.24,-5.77 a 3.44,3.44 0 0 1 3.79,3.7 12.16,12.16 0 0 1 -0.21,2 l -2.64,13.14 h 3.1 l 2.73,-13.43 a 10.84,10.84 0 0 0 0.22,-2.11 5.65,5.65 0 0 0 -5.91,-6 z"
         id="path39003" />
      <path
         d="m 166.18,21.27 c -5.63,0 -9.58,4 -10.85,10.88 a 19.13,19.13 0 0 0 -0.3,3.28 c 0,4.73 2.87,7.67 7.49,7.67 a 9.85,9.85 0 0 0 7.09,-3 v 0 l -1.79,-2.19 v 0 0 a 6.54,6.54 0 0 1 -5.09,2.44 c -2.2,0 -4.56,-1.31 -4.56,-5 a 16.39,16.39 0 0 1 0.34,-3.18 12.18,12.18 0 0 1 2.75,-6.09 6.32,6.32 0 0 1 4.66,-2 4.47,4.47 0 0 1 4.08,2.29 v 0.05 l 2.28,-1.93 v 0 0 a 6.92,6.92 0 0 0 -6.15,-3.16 z"
         id="path39005" />
      <polygon
         points="153.99,11.8 150.89,11.8 150.1,15.68 153.21,15.68 "
         id="polygon39007" />
      <polygon
         points="123.8,11.8 120.7,11.8 119.92,15.68 123.03,15.68 "
         id="polygon39009" />
      <polygon
         points="115.52,11.8 112.42,11.8 111.64,15.68 114.75,15.68 "
         id="polygon39011" />
      <polygon
         points="31.84,42.84 41.55,42.84 46.22,19.56 54.37,19.56 49.69,42.84 59.4,42.84 61.79,30.81 68.78,30.81 66.38,42.84 76.08,42.84 82.32,11.8 72.62,11.8 70.16,23.83 63.18,23.83 65.63,11.8 6.26,11.8 0.03,42.84 23.7,42.84 25.25,35.08 11.27,35.08 12.12,30.81 26.09,30.81 27.5,23.83 13.52,23.83 14.37,19.56 36.52,19.56 "
         id="polygon39013" />
    </g>
  </g>
  <metadata
     id="metadata39503" />
</svg>
