<?xml version="1.0" encoding="UTF-8" standalone="no"?>
<svg xmlns:inkscape="http://www.inkscape.org/namespaces/inkscape" xmlns:sodipodi="http://sodipodi.sourceforge.net/DTD/sodipodi-0.dtd" xmlns="http://www.w3.org/2000/svg" xmlns:svg="http://www.w3.org/2000/svg" width="600" height="600" viewBox="0 0 600 600" fill="none" version="1.1" id="svg30735" sodipodi:docname="benchmark.svg" xml:space="preserve" inkscape:version="1.2.2 (1:1.2.2+202305151915+b0a8486541)">
  <rect width="600" height="600" fill="#CBD0D0" id="rect30632"></rect>
  <path d="M452.04 384.669C454.29 426.126 373.237 510.426 273.334 479.224C226.87 464.711 230.806 440.622 195.475 408.876C174.415 389.955 144.157 375.647 135.741 348.144C128.472 324.404 132.93 298.888 145.533 282.291C173.881 244.965 231.106 219.406 287.492 278.216C343.878 337.025 446.226 277.747 452.04 384.669V384.669Z" fill="url(#paint0_linear_182_1603)" id="path30634"></path>
  <path d="M419.113 207.982C412.45 219.872 397.86 221.505 374.486 219.246C356.906 217.544 340.875 216.226 323.295 206.641C310.989 199.937 301.249 190.866 294.139 182.056C286.435 172.512 275.682 161.62 280.954 150.799C288.197 135.934 330.091 123.414 370.77 143.888C415.457 166.384 425.629 196.362 419.113 207.982V207.982Z" fill="url(#paint1_linear_182_1603)" id="path30636"></path>
  <path d="M380.495 128.725C380.062 128.569 379.624 128.428 379.181 128.302C379.034 128.26 378.89 128.215 378.743 128.177C378.429 128.098 378.113 128.022 377.797 127.95C377.645 127.918 377.493 127.887 377.341 127.859C377.023 127.8 376.705 127.746 376.385 127.699C376.199 127.673 376.012 127.649 375.824 127.627C375.688 127.612 375.552 127.596 375.414 127.584C375.199 127.564 374.984 127.548 374.768 127.535C374.655 127.528 374.541 127.516 374.428 127.512C374.094 127.496 373.76 127.488 373.426 127.488H219.435C218.03 127.487 216.628 127.628 215.251 127.911C206.463 129.71 199.699 137.077 198.777 146.173C198.706 146.874 198.67 147.583 198.67 148.302V463.796C198.67 472.805 204.379 480.475 212.37 483.373C212.405 483.387 212.441 483.398 212.477 483.409C212.873 483.55 213.276 483.678 213.681 483.794C213.828 483.836 213.973 483.88 214.122 483.919C214.278 483.958 214.434 483.996 214.59 484.034C214.747 484.072 214.908 484.11 215.068 484.145C215.22 484.179 215.371 484.207 215.525 484.237C215.842 484.296 216.159 484.349 216.478 484.397C216.663 484.423 216.85 484.445 217.039 484.468C217.39 484.508 217.741 484.54 218.094 484.561C218.207 484.568 218.321 484.579 218.435 484.583C218.767 484.599 219.101 484.608 219.436 484.608H373.431C374.147 484.608 374.856 484.572 375.555 484.501C385.327 483.507 393.097 475.717 394.09 465.921C394.161 465.221 394.197 464.511 394.197 463.793V148.302C394.192 139.293 388.484 131.623 380.495 128.725Z" fill="#B6B9B3" id="path30638"></path>
  <path d="M296.431 469.574C303.043 469.574 308.402 464.214 308.402 457.603C308.402 450.992 303.043 445.632 296.431 445.632C289.82 445.632 284.46 450.992 284.46 457.603C284.46 464.214 289.82 469.574 296.431 469.574Z" fill="white" id="path30640"></path>
  <path d="M315.384 145.367H278.475C277.373 145.367 276.479 146.26 276.479 147.362C276.479 148.463 277.373 149.357 278.475 149.357H315.384C316.486 149.357 317.38 148.463 317.38 147.362C317.38 146.26 316.486 145.367 315.384 145.367Z" fill="white" id="path30642"></path>
  <path d="M534.849 262.081C532.784 253.832 513.278 241.784 502.854 249.048C499.655 233.333 496.662 223.532 486.208 215.791C475.755 208.049 458.313 218.168 455.511 239.364C452.71 230.651 438.467 218.908 427.026 228.809C416.44 237.972 415.378 253.324 416.484 262.067H534.849V262.081Z" fill="url(#paint2_linear_182_1603)" id="path30644"></path>
  <path d="M92.9288 189.26C94.3164 183.704 107.43 175.59 114.438 180.483C116.589 169.899 118.601 163.298 125.628 158.085C132.656 152.871 144.382 159.686 146.265 173.96C148.148 168.092 157.723 160.184 165.415 166.852C172.531 173.023 173.245 183.363 172.501 189.25H92.9288V189.26Z" fill="url(#paint3_linear_182_1603)" id="path30646"></path>
  <path d="M 350.299,374.84 H 247.55 c -2.203,0 -3.99,1.786 -3.99,3.99 v 0.001 c 0,2.203 1.787,3.99 3.99,3.99 h 102.749 c 2.204,0 3.99,-1.787 3.99,-3.99 v -0.001 c 0,-2.204 -1.786,-3.99 -3.99,-3.99 z" fill="#ffffff" id="path30654"></path>
  <path d="m 350.3,350.899 h -94.77 c -2.203,0 -3.99,1.786 -3.99,3.99 v 10e-4 c 0,2.203 1.787,3.99 3.99,3.99 h 94.77 c 2.203,0 3.989,-1.787 3.989,-3.99 v -10e-4 c 0,-2.204 -1.786,-3.99 -3.989,-3.99 z" fill="#ffffff" id="path30656"></path>
  <path d="M 350.3,326.958 H 242.562 c -2.203,0 -3.99,1.786 -3.99,3.989 v 10e-4 c 0,2.204 1.787,3.99 3.99,3.99 H 350.3 c 2.203,0 3.989,-1.786 3.989,-3.99 v -10e-4 c 0,-2.203 -1.786,-3.989 -3.989,-3.989 z" fill="#ffffff" id="path30658"></path>
  <path d="M166.749 334.903C170.054 334.903 172.734 337.583 172.734 340.889C172.734 344.194 170.054 346.874 166.749 346.874C163.443 346.874 160.763 344.194 160.763 340.889C160.763 337.583 163.443 334.903 166.749 334.903Z" fill="#E1E4E5" id="path30660"></path>
  <path d="M428.608 356.85C426.679 356.85 425.116 358.413 425.116 360.341C425.116 362.27 426.679 363.833 428.608 363.833C430.536 363.833 432.099 362.27 432.099 360.341C432.099 358.413 430.536 356.85 428.608 356.85Z" fill="#888F82" id="path30662"></path>
  <path d="M118.84 252.844C116.361 252.844 114.351 254.854 114.351 257.333C114.351 259.812 116.361 261.822 118.84 261.822C121.319 261.822 123.329 259.812 123.329 257.333C123.329 254.854 121.319 252.844 118.84 252.844Z" fill="#888F82" id="path30664"></path>
  <path d="M177.551 227.455C175.072 227.455 173.062 229.465 173.062 231.944C173.062 234.423 175.072 236.433 177.551 236.433C180.03 236.433 182.04 234.423 182.04 231.944C182.04 229.465 180.03 227.455 177.551 227.455Z" fill="#E1E4E5" id="path30666"></path>
  <path d="M425.615 411.715C428.094 411.715 430.104 413.725 430.104 416.204C430.104 418.684 428.094 420.693 425.615 420.693C423.136 420.693 421.126 418.684 421.126 416.204C421.126 413.725 423.136 411.715 425.615 411.715Z" fill="#E1E4E5" id="path30668"></path>
  <path d="M173.584 431.357C176.063 431.357 178.073 433.367 178.073 435.846C178.073 438.326 176.063 440.335 173.584 440.335C171.105 440.335 169.095 438.326 169.095 435.846C169.095 433.367 171.105 431.357 173.584 431.357Z" fill="#E1E4E5" id="path30670"></path>
  <path d="M415.639 178.286C418.118 178.286 420.128 180.296 420.128 182.775C420.128 185.254 418.118 187.264 415.639 187.264C413.16 187.264 411.15 185.254 411.15 182.775C411.15 180.296 413.16 178.286 415.639 178.286Z" fill="#E1E4E5" id="path30672"></path>
  <path d="M432.1 308.967L425.117 301.984L432.1 295.001L439.083 301.984L432.1 308.967Z" stroke="#E1E4E5" stroke-width="5.029" stroke-linecap="round" stroke-linejoin="round" id="path30674"></path>
  <path d="M480.128 290.065C472.706 291.823 464.856 285.528 464.856 285.528C464.856 285.528 469.045 276.387 476.47 274.634C483.892 272.876 491.739 279.164 491.739 279.164C491.739 279.164 487.55 288.306 480.128 290.065V290.065Z" fill="url(#paint4_linear_182_1603)" id="path30676"></path>
  <path d="M466.734 347.873C473.312 352.404 483.362 349.237 483.362 349.237C483.362 349.237 482.739 338.724 476.157 334.197C469.579 329.666 459.533 332.829 459.533 332.829C459.533 332.829 460.155 343.342 466.734 347.873Z" fill="#C26148" id="path30678" style="fill:#7c3aed;fill-opacity:1"></path>
  <path d="M76.486 304.098C91.0241 318.895 118.211 315.775 118.211 315.775C118.211 315.775 121.808 288.665 107.256 273.877C92.718 259.08 65.5459 262.191 65.5459 262.191C65.5459 262.191 61.9479 289.301 76.486 304.098Z" fill="#C26148" id="path30680" style="fill:#7c3aed;fill-opacity:1"></path>
  <path d="M505.984 310.762C500.016 310.762 495.179 315.389 495.179 321.096C495.179 326.804 500.016 331.431 505.984 331.431C511.951 331.431 516.788 326.804 516.788 321.096C516.788 315.389 511.951 310.762 505.984 310.762Z" fill="#C26148" id="path30682" style="fill:#7c3aed;fill-opacity:1"></path>
  <path d="M157.676 393.687C149.634 393.687 143.114 399.996 143.114 407.779C143.114 415.562 149.634 421.871 157.676 421.871C165.718 421.871 172.238 415.562 172.238 407.779C172.238 399.996 165.718 393.687 157.676 393.687Z" fill="#C26148" id="path30684" style="fill:#7c3aed;fill-opacity:1"></path>
  <path d="M149.186 227.499C143.33 227.499 138.582 222.751 138.582 216.894C138.582 211.037 143.33 206.29 149.186 206.29C155.043 206.29 159.791 211.037 159.791 216.894C159.791 222.751 155.043 227.499 149.186 227.499Z" fill="#C26148" id="path30686" style="fill:#7c3aed;fill-opacity:1"></path>
  <path d="M439.191 253.532C433.743 253.532 429.326 249.116 429.326 243.667C429.326 238.219 433.743 233.802 439.191 233.802C444.639 233.802 449.056 238.219 449.056 243.667C449.056 249.116 444.639 253.532 439.191 253.532Z" fill="#C26148" id="path30688" style="fill:#7c3aed;fill-opacity:1"></path>
  <path d="M464.381 417.365C459.482 417.365 455.51 413.393 455.51 408.493C455.51 403.594 459.482 399.622 464.381 399.622C469.281 399.622 473.253 403.594 473.253 408.493C473.253 413.393 469.281 417.365 464.381 417.365Z" fill="#E1E4E5" id="path30690"></path>
  <path d="M113.368 360.368C108.215 360.368 104.037 356.19 104.037 351.036C104.037 345.882 108.215 341.704 113.368 341.704C118.522 341.704 122.7 345.882 122.7 351.036C122.7 356.19 118.522 360.368 113.368 360.368Z" fill="#E1E4E5" id="path30692"></path>
  <path d="M479.942 241.411C477.403 241.411 475.344 239.352 475.344 236.813C475.344 234.274 477.403 232.215 479.942 232.215C482.481 232.215 484.539 234.274 484.539 236.813C484.539 239.352 482.481 241.411 479.942 241.411Z" fill="#E1E4E5" id="path30694"></path>
  <path d="M453.317 189.927C449.441 189.927 446.299 186.785 446.299 182.91C446.299 179.034 449.441 175.892 453.317 175.892C457.193 175.892 460.334 179.034 460.334 182.91C460.334 186.785 457.193 189.927 453.317 189.927Z" fill="#E1E4E5" id="path30696"></path>
  <path d="M158.595 287.253C159.251 289.702 157.798 292.219 155.349 292.875C152.9 293.532 150.383 292.078 149.726 289.629C149.07 287.181 150.524 284.663 152.972 284.007C155.421 283.351 157.939 284.804 158.595 287.253Z" fill="#E1E4E5" id="path30698"></path>
  <path d="M92.5318 221.108C90.1218 221.108 88.1681 219.154 88.1681 216.744C88.1681 214.334 90.1218 212.38 92.5318 212.38C94.9418 212.38 96.8955 214.334 96.8955 216.744C96.8955 219.154 94.9418 221.108 92.5318 221.108Z" fill="#E1E4E5" id="path30700"></path>
  <path d="M499.876 381.749C497.282 381.749 495.179 380.066 495.179 377.991C495.179 375.915 497.282 374.232 499.876 374.232C502.471 374.232 504.574 375.915 504.574 377.991C504.574 380.066 502.471 381.749 499.876 381.749Z" fill="#E1E4E5" id="path30702"></path>
  <path d="M508.332 197.306H508.455C509.182 207.616 516.85 207.775 516.85 207.775C516.85 207.775 508.395 207.941 508.395 219.854C508.395 207.941 499.939 207.775 499.939 207.775C499.939 207.775 507.604 207.616 508.332 197.306V197.306ZM187.665 114H187.809C188.663 126.335 197.657 126.525 197.657 126.525C197.657 126.525 187.739 126.722 187.739 140.975C187.739 126.722 177.822 126.525 177.822 126.525C177.822 126.525 186.812 126.335 187.665 114Z" fill="#E1E4E5" id="path30706"></path>
  <defs id="defs30733">
    <linearGradient id="paint0_linear_182_1603" x1="355.165" y1="633.172" x2="203.551" y2="-50.8564" gradientUnits="userSpaceOnUse">
      <stop stop-color="white" id="stop30708"></stop>
      <stop offset="1" stop-color="#EEEEEE" id="stop30710"></stop>
    </linearGradient>
    <linearGradient id="paint1_linear_182_1603" x1="374.233" y1="285.038" x2="314.854" y2="18.2111" gradientUnits="userSpaceOnUse">
      <stop stop-color="white" id="stop30713"></stop>
      <stop offset="1" stop-color="#EEEEEE" id="stop30715"></stop>
    </linearGradient>
    <linearGradient id="paint2_linear_182_1603" x1="478.025" y1="289.486" x2="477.404" y2="160.013" gradientUnits="userSpaceOnUse">
      <stop stop-color="white" id="stop30718"></stop>
      <stop offset="1" stop-color="#EEEEEE" id="stop30720"></stop>
    </linearGradient>
    <linearGradient id="paint3_linear_182_1603" x1="131.13" y1="207.717" x2="131.549" y2="120.52" gradientUnits="userSpaceOnUse">
      <stop stop-color="white" id="stop30723"></stop>
      <stop offset="1" stop-color="#EEEEEE" id="stop30725"></stop>
    </linearGradient>
    <linearGradient id="paint4_linear_182_1603" x1="452.179" y1="294.436" x2="517.15" y2="263.742" gradientUnits="userSpaceOnUse">
      <stop stop-color="white" id="stop30728"></stop>
      <stop offset="1" stop-color="#EEEEEE" id="stop30730"></stop>
    </linearGradient>
  </defs>
  <path d="m 315.86443,197.19657 h -38.88887 c -4.6007,0 -8.3507,3.78473 -8.17711,8.36807 0.0347,0.92013 0.0693,1.84026 0.12171,2.74303 h -18.33333 c -2.30904,0 -4.16667,1.85763 -4.16667,4.16667 0,16.0764 5.81597,27.25696 13.62847,34.84376 7.69096,7.48264 17.06596,11.25 23.9757,13.1597 C 288.08683,261.6063 291,265 291,268.394 c 0,1.606 0,5.606 0,6.606 0,0 -4.90535,-0.0257 -6.71527,-0.0257 h -4.53124 c -3.07293,0 -5.55556,2.48263 -5.55556,5.55556 0,3.0729 2.48263,5.55557 5.55556,5.55557 h 33.33334 c 3.0729,0 5.55556,-2.48267 5.55556,-5.55557 0,-3.07293 -2.48266,-5.55556 -5.55556,-5.55556 h -4.53127 C 306.52315,274.9743 302,275 302,275 c 0,-1 -0.0357,-5.00997 -0.0243,-6.606 0.0243,-3.39443 2.7604,-6.8051 6.84026,-7.91624 6.92707,-1.9097 16.30207,-5.67706 23.99307,-13.1597 7.79513,-7.5868 13.6111,-18.76736 13.6111,-34.84376 0,-2.30904 -1.85763,-4.16667 -4.16667,-4.16667 h -18.33333 c 0.052,-0.90277 0.0867,-1.80553 0.12171,-2.74303 0.17376,-4.58334 -3.5764,-8.36807 -8.1771,-8.36807 z M 254.90955,216.641 h 14.65281 c 1.57987,15.64237 5.06944,26.09377 9.01039,33.0903 -4.32289,-1.90973 -8.81942,-4.6007 -12.70832,-8.38543 -5.55553,-5.3993 -10.06943,-13.19443 -10.9375,-24.70487 z m 72.08335,24.70487 c -3.88887,3.78473 -8.3854,6.4757 -12.70835,8.38543 3.94101,-6.99653 7.43058,-17.44793 9.01045,-33.0903 h 14.65276 c -0.88541,11.51044 -5.3993,19.30557 -10.9375,24.70487 z" id="path34486" style="fill:#ffffff;stroke-width:0.173611" sodipodi:nodetypes="csccssccsssssssssscsccssccsccccccccccccc"></path>
  <path d="m 297.50822,214.98917 c -0.20074,-0.41662 -0.62493,-0.68174 -1.09079,-0.68174 -0.46586,0 -0.88627,0.26512 -1.09079,0.68174 L 292.89129,220 l -5.43881,0.80295 c -0.4545,0.0682 -0.83325,0.38632 -0.97338,0.82188 -0.14014,0.43556 -0.0265,0.91657 0.29921,1.2385 l 3.94655,3.90489 -0.93172,5.51834 c -0.0757,0.4545 0.11362,0.91657 0.48858,1.18548 0.37496,0.26891 0.87112,0.303 1.28017,0.0871 l 4.85932,-2.59442 4.85933,2.59442 c 0.40905,0.21589 0.90521,0.18559 1.28017,-0.0871 0.37496,-0.2727 0.56433,-0.73098 0.48858,-1.18548 l -0.9355,-5.51834 3.94654,-3.90489 c 0.32573,-0.32193 0.44314,-0.80294 0.29921,-1.2385 -0.14392,-0.43556 -0.51888,-0.75371 -0.97338,-0.82188 L 299.94356,220 Z" id="path35223" style="fill:#7c3aed;fill-opacity:1;stroke-width:0.0378747"></path>
</svg>
